<?xml version="1.0" encoding="utf-8"?>
<!-- Generator: Adobe Illustrator 25.3.1, SVG Export Plug-In . SVG Version: 6.00 Build 0)  -->
<svg version="1.1" id="Layer_1" xmlns="http://www.w3.org/2000/svg" xmlns:xlink="http://www.w3.org/1999/xlink" x="0px" y="0px"
	 viewBox="0 0 512 512" style="enable-background:new 0 0 512 512;" xml:space="preserve">
<style type="text/css">
	.st0{fill:#1D1D1B;}
</style>
<path class="st0" d="M277.3,21.3c0-11.8,9.6-21.3,21.3-21.3C416.4,0.1,511.9,95.6,512,213.3c0,11.8-9.6,21.3-21.3,21.3
	c-11.8,0-21.3-9.6-21.3-21.3c-0.1-94.2-76.5-170.6-170.7-170.7C286.9,42.7,277.3,33.1,277.3,21.3z M298.7,128
	c47.1,0,85.3,38.2,85.3,85.3c0,11.8,9.6,21.3,21.3,21.3s21.3-9.6,21.3-21.3c-0.1-70.7-57.3-127.9-128-128
	c-11.8,0-21.3,9.6-21.3,21.3S286.9,128,298.7,128z M492.7,357.1c25.7,25.8,25.7,67.6,0,93.4l-19.4,22.4
	C298.5,640.1-126.7,215.1,38,39.8l24.5-21.3c25.8-25,67-24.6,92.3,0.9c0.7,0.7,40.2,52,40.2,52c24.4,25.6,24.3,65.8-0.1,91.3
	l-24.7,31.1C197.8,260.9,251,314.2,318.1,342l31.3-24.9c25.5-24.4,65.7-24.5,91.3-0.1C440.7,316.9,492,356.4,492.7,357.1z
	 M463.3,388.1c0,0-51.1-39.3-51.7-39.9c-9.1-9.1-23.9-9.1-33,0c-0.6,0.6-43.6,34.9-43.6,34.9c-5.9,4.7-13.8,5.9-20.9,3.2
	c-87-32.4-155.7-101-188.2-187.9c-2.9-7.1-1.7-15.3,3.1-21.3c0,0,34.3-43.1,34.9-43.6c9.1-9.1,9.1-23.9,0-33
	c-0.7-0.6-39.9-51.7-39.9-51.7c-9.3-8.3-23.4-7.9-32.2,0.8L67.1,70.8C-53.2,215.6,315.2,563.6,442,443.7l19.4-22.4
	C471,412.6,471.8,397.9,463.3,388.1L463.3,388.1z"/>
</svg>
