<?xml version="1.0" encoding="utf-8"?>
<!-- Generator: Adobe Illustrator 25.3.1, SVG Export Plug-In . SVG Version: 6.00 Build 0)  -->
<svg version="1.1" id="Outline" xmlns="http://www.w3.org/2000/svg" xmlns:xlink="http://www.w3.org/1999/xlink" x="0px" y="0px"
	 viewBox="0 0 512 512" style="enable-background:new 0 0 512 512;" xml:space="preserve">
<style type="text/css">
	.st0{fill:#1D1D1B;}
</style>
<path class="st0" d="M405.3,21.3H106.7C47.8,21.4,0.1,69.1,0,128v256c0.1,58.9,47.8,106.6,106.7,106.7h298.7
	c58.9-0.1,106.6-47.8,106.7-106.7V128C511.9,69.1,464.2,21.4,405.3,21.3z M106.7,64h298.7c26.1,0.1,49.6,16,59.3,40.3L301.3,267.6
	c-25,24.9-65.5,24.9-90.5,0L47.4,104.3C57.1,80,80.5,64.1,106.7,64z M405.3,448H106.7c-35.3,0-64-28.7-64-64V160l137.9,137.8
	c41.7,41.6,109.2,41.6,150.9,0L469.3,160v224C469.3,419.3,440.7,448,405.3,448z"/>
</svg>
